<?xml version="1.0" encoding="utf-8"?>
<!-- Generator: Adobe Illustrator 16.0.0, SVG Export Plug-In . SVG Version: 6.00 Build 0)  -->
<!DOCTYPE svg PUBLIC "-//W3C//DTD SVG 1.1//EN" "http://www.w3.org/Graphics/SVG/1.1/DTD/svg11.dtd">
<svg version="1.1" xmlns="http://www.w3.org/2000/svg" xmlns:xlink="http://www.w3.org/1999/xlink" x="0px" y="0px" width="368.4px"
	 height="226.8px" viewBox="0 0 368.4 226.8" enable-background="new 0 0 368.4 226.8" xml:space="preserve">
<g id="Text">
	<path fill="#016E97" d="M67.56,56.68h10.223v40.89h40.89v10.223H67.56V56.68z"/>
	<path fill="#016E97" d="M125.487,56.68H176.6v51.112h-51.112V56.68z M135.71,66.903V97.57h30.667V66.903H135.71z"/>
	<path fill="#5A5B5B" d="M234.527,56.68v10.223h-40.891V97.57h40.891v10.223h-51.113V56.68H234.527z"/>
	<path fill="#5A5B5B" d="M241.342,107.792V97.57h3.919l15.64-40.89h11.824l15.641,40.89h4.089v10.223h-11.108l-14.55-38.027
		l-14.516,38.027H241.342z"/>
	<path fill="#5A5B5B" d="M299.269,56.68h10.223v40.89h40.89v10.223h-51.112V56.68z"/>
	<path fill="#016E97" d="M77.8,148.015v20.48H67.56v-51.201H77.8v20.481h30.72v-20.481h10.24v51.201h-10.24v-20.48H77.8z"/>
	<path fill="#016E97" d="M125.587,117.294h51.201v51.201h-51.201V117.294z M135.828,127.535v30.72h30.72v-30.72H135.828z"/>
	<path fill="#5A5B5B" d="M234.814,117.294v30.721h-24.439l24.439,9.354v11.127h-10.24v-4.097l-30.72-11.741v15.838h-10.24v-51.201
		H234.814z M224.574,127.535h-30.72v10.24h30.72V127.535z"/>
	<path fill="#5A5B5B" d="M292.842,117.294v10.241h-40.96v10.24h40.96v30.72h-51.2v-10.24h40.961v-10.24h-40.961v-30.721H292.842z"/>
	<path fill="#5A5B5B" d="M330.39,127.535v40.96h-10.241v-40.96h-20.479v-10.241h51.2v10.241H330.39z"/>
</g>
<g id="Wrench">
	<path d="M177.84,176.546c0,0-2.949,1.917-4.551,2.803c-15.534,8.595-30.914,17.455-46.141,26.582
		c-15.226,9.126-30.453,9.126-45.679,0c-15.226-9.127-30.606-17.987-46.141-26.582c-15.534-8.594-23.147-21.752-22.839-39.473
		c0.308-17.722,0.308-35.443,0-53.164s7.306-30.878,22.839-39.473c15.534-8.595,30.915-17.455,46.141-26.582
		c15.227-9.126,30.453-9.126,45.679,0c15.227,9.126,30.606,17.987,46.141,26.582c1.02,0.564,2.006,1.148,2.957,1.752l-32.463-0.024
		l-39.234-22.667L29.052,69.917v87.237l75.497,43.618c0,0,21.531-12.439,41.596-24.032L177.84,176.546z"/>
</g>
</svg>
